<?xml version="1.0" standalone="no"?>
<!DOCTYPE svg PUBLIC "-//W3C//DTD SVG 20010904//EN"
 "http://www.w3.org/TR/2001/REC-SVG-20010904/DTD/svg10.dtd">
<svg version="1.0" xmlns="http://www.w3.org/2000/svg"
 width="2262.000000pt" height="442.000000pt" viewBox="0 0 2262.000000 442.000000"
 preserveAspectRatio="xMidYMid meet">

<g transform="translate(0.000000,442.000000) scale(0.100000,-0.100000)"
fill="#000000" stroke="none">
<path d="M16082 2703 c3 -1269 4 -1330 22 -1378 46 -125 129 -204 255 -246 58
-20 79 -21 230 -17 91 3 179 10 195 17 27 11 28 13 21 59 -4 26 -10 50 -14 54
-3 4 -76 9 -161 11 -128 4 -165 8 -211 26 -66 25 -123 78 -153 141 -21 45 -21
45 -24 1353 l-2 1307 -80 0 -80 0 2 -1327z"/>
<path d="M679 3981 c-50 -10 -96 -46 -120 -92 -25 -49 -25 -49 -69 -1189 -6
-140 -15 -361 -20 -490 -5 -129 -15 -356 -21 -505 -6 -148 -14 -346 -18 -440
-4 -114 -3 -172 4 -177 5 -4 116 -8 246 -8 178 0 239 3 246 13 6 6 13 109 17
227 9 304 22 652 56 1545 5 138 13 345 16 460 4 116 11 218 16 228 10 20 51
23 65 5 6 -7 12 -22 15 -33 6 -22 57 -213 90 -335 11 -41 30 -115 43 -165 43
-165 104 -399 141 -535 45 -172 75 -286 113 -430 98 -378 116 -440 137 -486
16 -36 74 -91 111 -105 32 -12 544 -12 576 0 62 24 116 93 138 176 14 56 112
433 169 650 18 66 35 136 40 155 4 19 21 87 38 150 60 226 170 650 223 860 12
47 26 91 32 98 14 18 65 15 75 -5 5 -10 12 -106 16 -213 6 -193 16 -466 36
-940 14 -332 18 -447 31 -780 6 -157 14 -341 17 -410 l7 -125 246 -3 c190 -2
249 1 256 10 7 8 7 63 2 153 -4 77 -12 262 -18 410 -16 387 -30 698 -41 945
-5 118 -14 324 -20 458 -34 810 -33 803 -76 859 -51 67 -57 68 -389 71 -359 4
-391 1 -447 -41 -56 -43 -78 -92 -127 -282 -22 -88 -55 -212 -72 -275 -16 -63
-52 -200 -79 -305 -28 -104 -66 -251 -86 -325 -108 -410 -189 -733 -205 -825
-15 -83 -22 -95 -60 -95 -26 0 -28 4 -39 58 -27 137 -78 343 -156 637 -41 154
-81 308 -144 550 -23 88 -61 234 -85 325 -24 91 -57 217 -74 280 -40 155 -57
200 -89 233 -59 62 -57 62 -407 64 -176 1 -336 -2 -356 -6z"/>
<path d="M21265 3728 c-3 -7 -6 -148 -7 -313 l-3 -300 -110 -8 c-60 -4 -141
-11 -180 -15 l-70 -7 0 -50 0 -50 180 -5 180 -5 6 -785 c4 -681 7 -792 21
-838 39 -126 120 -218 235 -263 52 -21 77 -24 243 -26 114 -2 218 2 270 9 84
13 85 13 88 44 2 16 -1 42 -7 56 l-10 25 -223 5 c-259 6 -308 18 -372 88 -46
51 -62 92 -75 186 -16 113 -15 1476 1 1492 9 9 104 12 365 12 l353 0 0 65 0
65 -353 0 c-261 0 -356 3 -365 12 -9 9 -12 93 -12 315 l0 303 -75 0 c-51 0
-77 -4 -80 -12z"/>
<path d="M20635 3428 c-16 -5 -46 -14 -65 -20 -63 -18 -214 -98 -285 -151 -80
-59 -223 -198 -281 -272 -21 -27 -47 -59 -57 -70 -21 -23 -213 -300 -242 -349
-91 -154 -120 -202 -125 -206 -6 -6 -49 -83 -65 -117 -5 -13 -13 -23 -17 -23
-5 0 -8 -5 -8 -11 0 -6 -15 -37 -34 -68 -19 -31 -43 -72 -54 -92 -39 -71 -47
-84 -52 -89 -10 -10 -41 -65 -47 -82 -3 -10 -9 -18 -14 -18 -5 0 -9 -5 -9 -11
0 -12 -218 -345 -242 -370 -7 -8 -25 -30 -38 -49 -14 -19 -34 -44 -45 -56 -11
-12 -43 -45 -70 -75 -134 -144 -312 -248 -425 -249 -50 0 -107 -23 -138 -54
-37 -37 -38 -103 -2 -141 31 -33 82 -55 128 -55 35 0 143 17 172 28 90 32 205
91 239 123 11 10 23 19 26 19 21 0 286 267 353 355 25 33 49 62 54 63 4 2 8 8
8 13 0 7 43 70 79 115 4 5 14 21 21 34 7 13 21 33 31 44 11 11 19 25 19 32 0
7 3 14 8 16 10 4 182 295 182 308 0 6 4 10 9 10 5 0 11 8 14 18 7 20 66 126
107 192 30 49 77 132 94 167 6 13 14 23 19 23 4 0 7 5 7 12 0 6 6 19 14 27 7
9 24 36 37 61 13 25 32 54 42 64 9 11 17 26 17 33 0 7 4 13 9 13 5 0 16 15 25
33 10 17 30 50 47 72 16 22 41 56 54 75 54 76 89 118 160 191 83 85 168 159
183 159 6 0 12 4 14 8 8 22 140 72 232 87 125 21 156 37 176 90 17 46 12 80
-18 108 -15 15 -35 27 -44 27 -9 0 -20 5 -23 10 -8 13 -140 11 -180 -2z"/>
<path d="M4970 3194 c-19 -2 -91 -8 -160 -14 -139 -12 -274 -27 -365 -40 -187
-28 -221 -33 -228 -40 -7 -6 26 -288 40 -334 6 -20 10 -20 328 -1 44 3 154 9
245 15 302 18 478 8 558 -34 42 -22 83 -75 99 -128 7 -24 13 -91 13 -150 l0
-106 -467 -5 c-489 -5 -507 -6 -623 -52 -94 -38 -196 -128 -238 -210 -39 -79
-53 -147 -59 -292 -6 -156 7 -290 37 -385 76 -237 306 -379 612 -379 265 0
496 90 717 281 40 34 75 60 78 57 3 -3 14 -57 25 -119 10 -62 22 -126 27 -143
l7 -30 195 0 194 0 0 795 c0 778 -1 797 -21 875 -66 251 -211 377 -493 429
-76 15 -404 20 -521 10z m530 -1342 c0 -181 7 -164 -105 -239 -128 -85 -269
-138 -439 -163 -136 -20 -241 11 -293 89 -37 54 -46 106 -41 228 5 101 8 116
34 157 20 32 42 51 74 65 42 19 68 20 408 21 l362 0 0 -158z"/>
<path d="M7175 3194 c-79 -10 -175 -27 -220 -39 -219 -57 -354 -178 -405 -365
-7 -25 -16 -58 -21 -74 -12 -39 -11 -281 1 -345 30 -158 84 -253 190 -334 36
-27 67 -54 69 -59 2 -6 -15 -29 -37 -51 -53 -55 -100 -148 -112 -220 -18 -115
18 -265 81 -333 10 -11 19 -25 19 -31 0 -7 -28 -29 -62 -49 -179 -108 -248
-228 -248 -429 0 -340 164 -513 550 -579 139 -24 431 -39 620 -31 478 19 696
92 821 276 47 70 68 140 83 279 26 243 -28 432 -156 548 -105 95 -232 135
-568 181 -47 7 -114 16 -150 21 -36 5 -135 19 -220 30 -273 36 -311 48 -350
112 -24 40 -27 126 -5 168 15 29 16 30 78 22 34 -4 181 -7 327 -7 261 0 344 7
475 40 224 57 363 185 416 383 34 129 28 384 -13 515 -15 48 -5 56 72 58 30 1
84 6 120 13 l65 11 13 110 c7 60 10 115 7 122 -3 10 -76 13 -327 13 -289 0
-333 2 -418 21 -81 17 -138 21 -380 24 -157 2 -298 1 -315 -1z m515 -368 c153
-37 220 -122 220 -285 0 -158 -61 -241 -210 -288 -72 -22 -405 -25 -490 -4
-158 39 -230 130 -230 291 0 157 60 240 204 281 78 22 420 26 506 5z m-492
-1606 c37 -5 146 -18 242 -30 96 -11 211 -25 255 -31 285 -37 325 -65 325
-229 -1 -223 -97 -269 -560 -270 -447 0 -540 46 -540 266 0 99 25 163 96 242
62 69 64 69 182 52z"/>
<path d="M9740 3150 c-157 -8 -280 -20 -425 -40 -44 -6 -116 -15 -160 -21
-111 -13 -107 -11 -100 -66 12 -80 -20 -76 350 -38 88 9 279 19 425 22 231 5
275 4 335 -11 129 -32 209 -100 255 -217 24 -61 25 -74 25 -264 l0 -200 -555
-5 c-598 -6 -598 -6 -703 -62 -102 -55 -175 -156 -208 -288 -21 -86 -18 -434
5 -530 44 -188 166 -310 356 -356 85 -21 289 -18 395 6 110 24 195 50 269 84
31 14 58 26 61 26 2 0 54 29 115 64 117 68 171 106 232 165 24 22 41 31 47 26
5 -6 15 -89 23 -185 l13 -175 55 0 55 0 3 812 c2 790 2 815 -18 889 -28 104
-63 168 -124 228 -55 55 -131 98 -218 121 -67 19 -305 26 -508 15z m710 -1264
l0 -294 -52 -45 c-142 -120 -400 -258 -558 -298 -168 -43 -344 -55 -440 -30
-204 53 -270 174 -270 495 0 256 52 370 196 427 55 21 78 23 344 29 157 3 396
7 533 8 l247 2 0 -294z"/>
<path d="M12340 3150 c-150 -20 -292 -67 -455 -154 -111 -58 -191 -110 -287
-183 -31 -24 -61 -43 -67 -43 -15 0 -19 28 -26 185 -4 77 -9 143 -12 147 -2 5
-31 8 -64 8 l-59 0 2 -1012 3 -1013 75 0 75 0 3 772 2 772 43 30 c171 117 449
266 572 305 126 40 192 48 326 44 98 -4 136 -9 181 -27 98 -38 172 -130 200
-247 8 -34 13 -294 17 -849 l6 -800 75 0 75 0 0 830 c0 899 2 861 -56 991 -48
109 -158 195 -295 233 -55 15 -255 22 -334 11z"/>
<path d="M14450 3150 c-144 -7 -292 -21 -425 -40 -38 -5 -110 -14 -160 -21
-49 -6 -94 -14 -98 -19 -11 -10 2 -97 17 -108 6 -5 47 -6 96 0 47 4 153 15
235 24 221 22 670 31 743 14 131 -31 210 -91 258 -195 36 -78 45 -146 42 -326
l-3 -164 -560 -5 c-427 -4 -569 -9 -600 -19 -161 -53 -258 -153 -301 -311 -26
-94 -26 -465 0 -560 38 -142 110 -238 224 -298 89 -47 162 -62 309 -62 139 0
248 18 390 66 147 49 383 185 496 285 34 29 51 39 56 30 4 -6 13 -87 20 -179
7 -92 16 -171 20 -175 5 -5 30 -7 57 -5 l49 3 3 808 c2 788 2 810 -19 889 -49
196 -148 296 -349 355 -57 16 -311 23 -500 13z m710 -1264 l0 -294 -52 -44
c-179 -151 -435 -276 -663 -323 -94 -20 -270 -23 -335 -6 -74 20 -128 49 -171
92 -76 76 -98 166 -98 394 0 279 44 375 201 438 48 19 79 21 338 27 157 3 396
7 533 8 l247 2 0 -294z"/>
<path d="M16970 3105 c0 -3 4 -13 9 -23 14 -26 29 -62 181 -437 78 -192 153
-377 167 -410 14 -33 31 -73 38 -90 7 -16 85 -208 174 -425 277 -682 250 -626
313 -636 21 -4 40 -10 43 -14 5 -8 -42 -120 -110 -265 -46 -98 -147 -244 -212
-306 -69 -66 -110 -94 -215 -149 l-93 -48 2 -37 c3 -49 18 -66 46 -55 12 4 42
14 67 21 147 42 304 156 410 298 109 145 126 181 381 811 100 245 187 460 195
478 8 17 20 47 28 65 8 17 91 223 186 457 95 234 178 439 185 455 7 17 29 71
49 120 21 50 46 109 56 133 11 23 20 47 20 52 0 15 -167 13 -173 -2 -2 -7
-151 -375 -330 -818 -179 -443 -344 -854 -367 -915 -53 -141 -52 -139 -87
-143 -29 -3 -32 0 -58 65 -15 37 -31 76 -36 85 -5 10 -9 22 -9 28 0 6 -9 29
-19 53 -11 23 -165 405 -342 850 l-323 807 -88 0 c-48 0 -88 -2 -88 -5z"/>
</g>
</svg>
